<svg width="263" height="107" viewBox="0 0 263 107" fill="none" xmlns="http://www.w3.org/2000/svg">
<path d="M5.34537 82V20.4982H29.9701C34.4947 20.4982 38.2684 21.1689 41.2915 22.5102C44.3145 23.8516 46.5868 25.7134 48.1083 28.0958C49.6299 30.4582 50.3906 33.181 50.3906 36.264C50.3906 38.6665 49.9101 40.7786 48.9492 42.6004C47.9882 44.4022 46.6669 45.8837 44.9852 47.0449C43.3235 48.186 41.4216 48.9968 39.2795 49.4773V50.0779C41.6218 50.178 43.814 50.8387 45.8561 52.0599C47.9181 53.2811 49.5898 54.9929 50.8711 57.1951C52.1524 59.3773 52.793 61.9799 52.793 65.0029C52.793 68.2662 51.9822 71.1791 50.3606 73.7417C48.759 76.2843 46.3866 78.2963 43.2434 79.7778C40.1003 81.2593 36.2264 82 31.6218 82H5.34537ZM18.3484 71.3693H28.9491C32.5727 71.3693 35.2154 70.6786 36.8771 69.2972C38.5387 67.8958 39.3696 66.034 39.3696 63.7116C39.3696 62.0099 38.9591 60.5084 38.1383 59.2071C37.3175 57.9058 36.1463 56.8848 34.6248 56.144C33.1233 55.4033 31.3315 55.0329 29.2494 55.0329H18.3484V71.3693ZM18.3484 46.2341H27.9881C29.7699 46.2341 31.3515 45.9238 32.7329 45.3031C34.1343 44.6625 35.2354 43.7616 36.0362 42.6004C36.857 41.4392 37.2674 40.0478 37.2674 38.4262C37.2674 36.204 36.4766 34.4122 34.8951 33.0508C33.3335 31.6894 31.1113 31.0088 28.2284 31.0088H18.3484V46.2341ZM71.8547 82H57.9207L79.152 20.4982H95.9089L117.11 82H103.176L87.7707 34.5523H87.2902L71.8547 82ZM70.9838 57.8257H103.897V67.9759H70.9838V57.8257ZM124.513 82V20.4982H148.777C153.422 20.4982 157.386 21.329 160.669 22.9907C163.972 24.6324 166.485 26.9647 168.206 29.9877C169.948 32.9908 170.819 36.5243 170.819 40.5884C170.819 44.6725 169.938 48.186 168.176 51.129C166.415 54.0519 163.862 56.2942 160.519 57.8557C157.195 59.4173 153.171 60.1981 148.447 60.1981H132.2V49.7476H146.345C148.827 49.7476 150.889 49.4073 152.531 48.7266C154.172 48.0459 155.394 47.0249 156.194 45.6635C157.015 44.3021 157.426 42.6104 157.426 40.5884C157.426 38.5463 157.015 36.8246 156.194 35.4232C155.394 34.0218 154.162 32.9607 152.501 32.24C150.859 31.4993 148.787 31.1289 146.284 31.1289H137.516V82H124.513ZM157.726 54.0119L173.011 82H158.657L143.702 54.0119H157.726ZM236.525 51.2491C236.525 57.9558 235.254 63.6616 232.711 68.3663C230.189 73.071 226.745 76.6646 222.381 79.1471C218.037 81.6096 213.152 82.8408 207.726 82.8408C202.261 82.8408 197.356 81.5996 193.011 79.1171C188.667 76.6346 185.234 73.041 182.711 68.3363C180.189 63.6315 178.927 57.9358 178.927 51.2491C178.927 44.5424 180.189 38.8366 182.711 34.1319C185.234 29.4272 188.667 25.8436 193.011 23.3811C197.356 20.8986 202.261 19.6574 207.726 19.6574C213.152 19.6574 218.037 20.8986 222.381 23.3811C226.745 25.8436 230.189 29.4272 232.711 34.1319C235.254 38.8366 236.525 44.5424 236.525 51.2491ZM223.342 51.2491C223.342 46.9047 222.691 43.2411 221.39 40.2581C220.109 37.2751 218.297 35.0128 215.954 33.4712C213.612 31.9297 210.869 31.1589 207.726 31.1589C204.583 31.1589 201.84 31.9297 199.498 33.4712C197.156 35.0128 195.334 37.2751 194.032 40.2581C192.751 43.2411 192.111 46.9047 192.111 51.2491C192.111 55.5935 192.751 59.2571 194.032 62.2401C195.334 65.2231 197.156 67.4854 199.498 69.027C201.84 70.5685 204.583 71.3393 207.726 71.3393C210.869 71.3393 213.612 70.5685 215.954 69.027C218.297 67.4854 220.109 65.2231 221.39 62.2401C222.691 59.2571 223.342 55.5935 223.342 51.2491ZM222.351 5.12276V12.0597H193.102V5.12276H222.351ZM249.513 82.7808C247.531 82.7808 245.829 82.0801 244.408 80.6787C243.007 79.2572 242.306 77.5555 242.306 75.5735C242.306 73.6116 243.007 71.9299 244.408 70.5285C245.829 69.1271 247.531 68.4264 249.513 68.4264C251.435 68.4264 253.117 69.1271 254.558 70.5285C256 71.9299 256.72 73.6116 256.72 75.5735C256.72 76.8949 256.38 78.1061 255.699 79.2072C255.039 80.2883 254.168 81.1592 253.087 81.8198C252.006 82.4605 250.814 82.7808 249.513 82.7808Z" fill="#353535"/>
<path d="M148.227 95.7958H153.317L150.814 88.7924H150.772L148.227 95.7958ZM149.72 86.9837H151.929L157.796 102H155.588L153.948 97.4783H147.596L145.914 102H143.874L149.72 86.9837ZM158.92 91.1269H160.603V93.4193H160.645C161.08 92.536 161.612 91.884 162.243 91.4634C162.874 91.0427 163.673 90.8465 164.641 90.8745V92.7673C163.926 92.7673 163.316 92.8655 162.811 93.0617C162.306 93.258 161.9 93.5455 161.591 93.924C161.283 94.3026 161.058 94.7653 160.918 95.3121C160.778 95.8449 160.708 96.4618 160.708 97.1628V102H158.92V91.1269ZM172.999 94.6181C172.859 93.931 172.565 93.3982 172.116 93.0197C171.667 92.6411 171.064 92.4518 170.307 92.4518C169.662 92.4518 169.122 92.571 168.688 92.8094C168.253 93.0477 167.903 93.3632 167.636 93.7558C167.384 94.1484 167.202 94.604 167.089 95.1228C166.977 95.6275 166.921 96.1533 166.921 96.7001C166.921 97.2049 166.977 97.6956 167.089 98.1723C167.216 98.649 167.405 99.0767 167.657 99.4552C167.91 99.8198 168.239 100.114 168.646 100.339C169.052 100.563 169.536 100.675 170.097 100.675C170.98 100.675 171.667 100.444 172.158 99.981C172.663 99.5183 172.971 98.8664 173.083 98.0251H174.913C174.717 99.3711 174.212 100.409 173.399 101.138C172.6 101.867 171.506 102.231 170.118 102.231C169.291 102.231 168.555 102.098 167.91 101.832C167.279 101.565 166.746 101.187 166.311 100.696C165.891 100.205 165.568 99.6235 165.344 98.9505C165.134 98.2635 165.028 97.5133 165.028 96.7001C165.028 95.8869 165.134 95.1298 165.344 94.4288C165.554 93.7137 165.87 93.0968 166.29 92.578C166.725 92.0452 167.265 91.6316 167.91 91.3372C168.555 91.0287 169.305 90.8745 170.16 90.8745C170.777 90.8745 171.352 90.9516 171.885 91.1058C172.431 91.2461 172.908 91.4704 173.315 91.7788C173.735 92.0873 174.079 92.4799 174.345 92.9566C174.612 93.4193 174.78 93.9731 174.85 94.6181H172.999ZM176.913 86.9837H178.701V92.7252H178.743C178.883 92.3887 179.08 92.1083 179.332 91.884C179.584 91.6456 179.865 91.4564 180.173 91.3162C180.496 91.1619 180.825 91.0498 181.162 90.9797C181.512 90.9096 181.849 90.8745 182.171 90.8745C182.886 90.8745 183.482 90.9726 183.959 91.1689C184.435 91.3652 184.821 91.6386 185.115 91.9892C185.41 92.3397 185.613 92.7603 185.725 93.251C185.852 93.7277 185.915 94.2605 185.915 94.8494V102H184.127V94.6391C184.127 93.9661 183.931 93.4333 183.538 93.0407C183.146 92.6481 182.606 92.4518 181.919 92.4518C181.372 92.4518 180.895 92.536 180.489 92.7042C180.096 92.8725 179.767 93.1108 179.5 93.4193C179.234 93.7277 179.03 94.0923 178.89 94.5129C178.764 94.9195 178.701 95.3682 178.701 95.8589V102H176.913V86.9837ZM190.492 89.171H188.705V86.9837H190.492V89.171ZM188.705 91.1269H190.492V102H188.705V91.1269ZM195.743 91.1269H197.91V92.7042H195.743V99.4552C195.743 99.6655 195.757 99.8338 195.786 99.96C195.828 100.086 195.898 100.184 195.996 100.254C196.094 100.325 196.227 100.374 196.395 100.402C196.578 100.416 196.809 100.423 197.089 100.423H197.91V102H196.543C196.08 102 195.68 101.972 195.344 101.916C195.021 101.846 194.755 101.727 194.545 101.558C194.348 101.39 194.201 101.152 194.103 100.843C194.005 100.535 193.956 100.128 193.956 99.6235V92.7042H192.105V91.1269H193.956V87.867H195.743V91.1269ZM207.446 95.5224C207.418 95.1018 207.32 94.7022 207.151 94.3236C206.997 93.9451 206.78 93.6226 206.499 93.3562C206.233 93.0758 205.911 92.8584 205.532 92.7042C205.167 92.536 204.761 92.4518 204.312 92.4518C203.85 92.4518 203.429 92.536 203.05 92.7042C202.686 92.8584 202.37 93.0758 202.104 93.3562C201.838 93.6366 201.627 93.9661 201.473 94.3446C201.319 94.7092 201.228 95.1018 201.2 95.5224H207.446ZM209.17 98.5509C208.932 99.7707 208.406 100.689 207.593 101.306C206.78 101.923 205.756 102.231 204.523 102.231C203.653 102.231 202.896 102.091 202.251 101.811C201.62 101.53 201.087 101.138 200.653 100.633C200.218 100.128 199.889 99.5253 199.664 98.8243C199.454 98.1233 199.335 97.3591 199.307 96.5319C199.307 95.7047 199.433 94.9475 199.685 94.2605C199.938 93.5735 200.288 92.9776 200.737 92.4729C201.2 91.9681 201.739 91.5755 202.356 91.2951C202.987 91.0147 203.674 90.8745 204.417 90.8745C205.385 90.8745 206.184 91.0778 206.815 91.4844C207.46 91.877 207.972 92.3817 208.35 92.9986C208.743 93.6156 209.009 94.2886 209.149 95.0176C209.304 95.7467 209.367 96.4408 209.339 97.0997H201.2C201.186 97.5764 201.242 98.0321 201.368 98.4668C201.494 98.8874 201.697 99.2659 201.978 99.6024C202.258 99.9249 202.616 100.184 203.05 100.381C203.485 100.577 203.997 100.675 204.586 100.675C205.343 100.675 205.96 100.5 206.436 100.149C206.927 99.7987 207.25 99.2659 207.404 98.5509H209.17ZM218.574 94.6181C218.433 93.931 218.139 93.3982 217.69 93.0197C217.242 92.6411 216.639 92.4518 215.882 92.4518C215.237 92.4518 214.697 92.571 214.262 92.8094C213.828 93.0477 213.477 93.3632 213.211 93.7558C212.958 94.1484 212.776 94.604 212.664 95.1228C212.552 95.6275 212.496 96.1533 212.496 96.7001C212.496 97.2049 212.552 97.6956 212.664 98.1723C212.79 98.649 212.979 99.0767 213.232 99.4552C213.484 99.8198 213.814 100.114 214.22 100.339C214.627 100.563 215.111 100.675 215.671 100.675C216.555 100.675 217.242 100.444 217.732 99.981C218.237 99.5183 218.546 98.8664 218.658 98.0251H220.487C220.291 99.3711 219.786 100.409 218.973 101.138C218.174 101.867 217.08 102.231 215.692 102.231C214.865 102.231 214.129 102.098 213.484 101.832C212.853 101.565 212.32 101.187 211.886 100.696C211.465 100.205 211.143 99.6235 210.918 98.9505C210.708 98.2635 210.603 97.5133 210.603 96.7001C210.603 95.8869 210.708 95.1298 210.918 94.4288C211.129 93.7137 211.444 93.0968 211.865 92.578C212.299 92.0452 212.839 91.6316 213.484 91.3372C214.129 91.0287 214.879 90.8745 215.734 90.8745C216.351 90.8745 216.926 90.9516 217.459 91.1058C218.006 91.2461 218.483 91.4704 218.889 91.7788C219.31 92.0873 219.653 92.4799 219.92 92.9566C220.186 93.4193 220.354 93.9731 220.424 94.6181H218.574ZM224.969 91.1269H227.136V92.7042H224.969V99.4552C224.969 99.6655 224.983 99.8338 225.011 99.96C225.054 100.086 225.124 100.184 225.222 100.254C225.32 100.325 225.453 100.374 225.621 100.402C225.804 100.416 226.035 100.423 226.315 100.423H227.136V102H225.769C225.306 102 224.906 101.972 224.57 101.916C224.247 101.846 223.981 101.727 223.771 101.558C223.574 101.39 223.427 101.152 223.329 100.843C223.231 100.535 223.182 100.128 223.182 99.6235V92.7042H221.331V91.1269H223.182V87.867H224.969V91.1269ZM238.123 102H236.44V100.275H236.398C236.02 100.948 235.536 101.446 234.947 101.769C234.358 102.077 233.664 102.231 232.865 102.231C232.15 102.231 231.554 102.14 231.078 101.958C230.601 101.762 230.215 101.488 229.921 101.138C229.626 100.787 229.416 100.374 229.29 99.8969C229.178 99.4062 229.122 98.8664 229.122 98.2775V91.1269H230.909V98.4878C230.909 99.1608 231.106 99.6936 231.498 100.086C231.891 100.479 232.431 100.675 233.118 100.675C233.664 100.675 234.134 100.591 234.527 100.423C234.933 100.254 235.27 100.016 235.536 99.7076C235.803 99.3991 235.999 99.0416 236.125 98.635C236.265 98.2144 236.335 97.7587 236.335 97.268V91.1269H238.123V102ZM240.745 91.1269H242.427V93.4193H242.469C242.904 92.536 243.437 91.884 244.068 91.4634C244.699 91.0427 245.498 90.8465 246.465 90.8745V92.7673C245.75 92.7673 245.14 92.8655 244.636 93.0617C244.131 93.258 243.724 93.5455 243.416 93.924C243.107 94.3026 242.883 94.7653 242.743 95.3121C242.603 95.8449 242.532 96.4618 242.532 97.1628V102H240.745V91.1269ZM254.992 95.5224C254.964 95.1018 254.866 94.7022 254.698 94.3236C254.543 93.9451 254.326 93.6226 254.046 93.3562C253.779 93.0758 253.457 92.8584 253.078 92.7042C252.714 92.536 252.307 92.4518 251.858 92.4518C251.396 92.4518 250.975 92.536 250.596 92.7042C250.232 92.8584 249.916 93.0758 249.65 93.3562C249.384 93.6366 249.173 93.9661 249.019 94.3446C248.865 94.7092 248.774 95.1018 248.746 95.5224H254.992ZM256.717 98.5509C256.478 99.7707 255.952 100.689 255.139 101.306C254.326 101.923 253.302 102.231 252.069 102.231C251.199 102.231 250.442 102.091 249.797 101.811C249.166 101.53 248.634 101.138 248.199 100.633C247.764 100.128 247.435 99.5253 247.21 98.8243C247 98.1233 246.881 97.3591 246.853 96.5319C246.853 95.7047 246.979 94.9475 247.231 94.2605C247.484 93.5735 247.834 92.9776 248.283 92.4729C248.746 91.9681 249.285 91.5755 249.902 91.2951C250.533 91.0147 251.22 90.8745 251.963 90.8745C252.931 90.8745 253.73 91.0778 254.361 91.4844C255.006 91.877 255.518 92.3817 255.896 92.9986C256.289 93.6156 256.555 94.2886 256.695 95.0176C256.85 95.7467 256.913 96.4408 256.885 97.0997H248.746C248.732 97.5764 248.788 98.0321 248.914 98.4668C249.04 98.8874 249.243 99.2659 249.524 99.6024C249.804 99.9249 250.162 100.184 250.596 100.381C251.031 100.577 251.543 100.675 252.132 100.675C252.889 100.675 253.506 100.5 253.982 100.149C254.473 99.7987 254.796 99.2659 254.95 98.5509H256.717Z" fill="#353535"/>
</svg>
